<?xml version="1.0" standalone="no"?>
<!DOCTYPE svg PUBLIC "-//W3C//DTD SVG 20010904//EN"
 "http://www.w3.org/TR/2001/REC-SVG-20010904/DTD/svg10.dtd">
<svg version="1.0" xmlns="http://www.w3.org/2000/svg"
 width="200.000000pt" height="200.000000pt" viewBox="0 0 200.000000 200.000000"
 preserveAspectRatio="xMidYMid meet">
<metadata>
Created by potrace 1.11, written by Peter Selinger 2001-2013
</metadata>
<g transform="translate(0.000000,200.000000) scale(0.100000,-0.100000)"
fill="#000000" stroke="none">
<path d="M875 1970 c-400 -57 -719 -339 -822 -727 -22 -84 -26 -119 -26 -243
0 -123 4 -159 26 -241 92 -349 357 -614 706 -706 82 -22 118 -26 241 -26 125
0 159 4 244 27 120 31 240 89 338 162 63 47 74 52 83 38 59 -97 100 -129 160
-128 41 1 125 37 125 54 0 19 -20 20 -52 0 -19 -11 -51 -20 -75 -20 -49 0 -87
32 -117 98 l-19 42 45 52 c108 126 181 269 220 425 30 123 30 322 0 445 -107
433 -470 734 -910 752 -59 3 -134 1 -167 -4z m290 -41 c331 -56 616 -299 727
-619 67 -193 66 -428 -2 -624 -27 -79 -90 -194 -144 -265 -69 -89 -70 -89 -97
-34 -31 63 -85 122 -134 144 -52 24 -65 24 -65 -1 0 -14 7 -20 21 -20 29 0 80
-32 105 -67 29 -39 64 -109 64 -127 0 -36 -204 -164 -330 -208 -192 -66 -428
-66 -620 0 -269 94 -488 313 -582 582 -66 192 -66 428 0 620 152 437 596 697
1057 619z"/>
<path d="M785 1760 c-127 -53 -168 -349 -70 -499 14 -20 38 -45 55 -54 25 -15
30 -24 30 -57 l0 -39 -47 -3 -48 -3 0 -300 0 -300 123 -3 122 -3 0 306 0 305
-45 0 -45 0 0 45 c0 30 4 45 13 45 17 0 71 57 90 95 38 79 47 230 18 326 -32
106 -123 170 -196 139z m95 -80 c88 -94 73 -366 -23 -420 -24 -13 -30 -13 -54
0 -97 53 -112 332 -23 421 36 37 65 37 100 -1z m20 -875 l0 -245 -70 0 -70 0
0 245 0 245 70 0 70 0 0 -245z"/>
<path d="M1219 1742 c-61 -32 -120 -102 -145 -172 -17 -48 -33 -269 -34 -472
l0 -118 55 0 55 0 0 -50 0 -50 -39 0 -39 0 -7 -82 c-3 -46 -5 -130 -3 -188 l3
-105 118 -3 117 -3 0 191 0 190 -45 0 -45 0 0 50 0 50 60 0 60 0 0 395 0 395
-29 0 c-16 0 -53 -13 -82 -28z m51 -372 l0 -330 -85 0 -85 0 0 178 c0 201 11
292 41 363 21 49 89 119 116 119 10 0 13 -63 13 -330z m-30 -675 l0 -135 -60
0 -60 0 0 135 0 135 60 0 60 0 0 -135z"/>
<path d="M1570 1667 c0 -7 21 -33 46 -57 150 -147 244 -365 257 -599 1 -28 7
-46 16 -49 12 -4 13 10 7 83 -16 219 -102 414 -250 572 -58 63 -76 74 -76 50z"/>
<path d="M100 1070 c0 -5 7 -10 15 -10 8 0 15 5 15 10 0 6 -7 10 -15 10 -8 0
-15 -4 -15 -10z"/>
<path d="M95 958 c17 -166 44 -260 111 -387 48 -91 129 -197 180 -236 48 -37
51 -12 4 31 -140 127 -248 361 -266 575 -5 58 -11 79 -21 79 -11 0 -13 -12 -8
-62z"/>
<path d="M1870 920 c0 -5 7 -10 15 -10 8 0 15 5 15 10 0 6 -7 10 -15 10 -8 0
-15 -4 -15 -10z"/>
<path d="M571 394 c-45 -57 -10 -144 58 -144 16 0 33 -4 36 -10 3 -5 21 -10
38 -10 l32 0 -24 19 c-20 15 -22 21 -12 39 18 33 13 90 -9 112 -31 31 -93 27
-119 -6z m87 -16 c20 -20 15 -76 -7 -88 -25 -13 -27 -13 -45 6 -31 30 -15 94
24 94 9 0 21 -5 28 -12z"/>
<path d="M810 335 c0 -78 2 -85 20 -85 16 0 20 7 20 35 0 31 3 35 25 35 16 0
25 6 25 15 0 9 -9 15 -25 15 -18 0 -25 5 -25 20 0 16 7 20 30 20 20 0 30 5 30
15 0 11 -12 15 -50 15 l-50 0 0 -85z"/>
<path d="M958 410 c-9 -6 -21 -25 -28 -44 -32 -97 99 -165 145 -75 34 64 1
129 -63 129 -20 0 -45 -5 -54 -10z m80 -32 c29 -29 1 -103 -37 -96 -25 5 -43
51 -31 82 10 28 46 36 68 14z"/>
<path d="M1132 397 c-49 -52 -12 -147 58 -147 69 0 109 101 60 150 -29 29 -90
27 -118 -3z m86 -19 c20 -20 15 -76 -8 -88 -32 -17 -60 4 -60 43 0 36 15 57
40 57 9 0 21 -5 28 -12z"/>
<path d="M1300 334 l0 -87 50 5 c66 7 100 37 100 89 0 55 -29 79 -97 79 l-53
0 0 -86z m98 44 c20 -20 14 -65 -10 -82 -39 -28 -48 -21 -48 39 0 51 2 55 23
55 13 0 28 -5 35 -12z"/>
<path d="M790 186 c0 -47 15 -61 38 -33 15 18 0 71 -21 75 -14 3 -17 -5 -17
-42z m30 19 c0 -8 -4 -15 -10 -15 -5 0 -10 7 -10 15 0 8 5 15 10 15 6 0 10 -7
10 -15z m2 -40 c0 -5 -5 -11 -11 -13 -6 -2 -11 4 -11 13 0 9 5 15 11 13 6 -2
11 -8 11 -13z"/>
<path d="M1201 215 c-2 -11 -2 -30 -1 -42 1 -16 -4 -23 -15 -23 -13 0 -16 6
-13 25 3 13 1 22 -3 19 -15 -9 -10 -44 7 -51 24 -9 36 11 31 53 -2 22 -5 30
-6 19z"/>
<path d="M854 185 c-9 -22 3 -45 23 -45 15 0 15 2 -3 15 -19 14 -18 14 4 15
13 0 22 6 22 15 0 8 -5 15 -11 15 -5 0 -7 -4 -4 -10 3 -5 -1 -10 -10 -10 -9 0
-13 5 -10 10 3 6 4 10 0 10 -3 0 -8 -7 -11 -15z"/>
<path d="M913 184 c-8 -20 21 -49 41 -41 17 7 22 42 7 51 -4 3 -6 -6 -3 -19 3
-18 0 -25 -11 -25 -22 0 -31 18 -17 35 9 11 9 15 1 15 -6 0 -14 -7 -18 -16z"/>
<path d="M986 184 c-8 -21 13 -47 32 -39 10 4 12 0 8 -10 -3 -9 -2 -13 4 -10
13 8 13 75 1 75 -5 0 -7 -8 -4 -19 6 -22 -14 -38 -29 -23 -8 8 -7 16 2 27 7 8
8 15 2 15 -5 0 -13 -7 -16 -16z"/>
<path d="M1061 168 c2 -28 2 -29 6 -8 3 14 10 28 17 32 7 5 5 8 -6 8 -14 0
-18 -8 -17 -32z"/>
<path d="M1118 180 c-22 -21 -23 -40 -3 -40 17 0 29 21 23 43 -2 11 -6 11 -20
-3z m12 -20 c0 -5 -4 -10 -10 -10 -5 0 -10 5 -10 10 0 6 5 10 10 10 6 0 10 -4
10 -10z"/>
</g>
</svg>
